<svg width="34" height="53" viewBox="0 0 34 53" fill="none" xmlns="http://www.w3.org/2000/svg">
<path d="M30.8382 4.60987C30.3274 4.09888 29.721 3.69352 29.0535 3.41696C28.3861 3.14039 27.6707 2.99805 26.9482 2.99805C26.2257 2.99805 25.5103 3.14039 24.8428 3.41696C24.1754 3.69352 23.5689 4.09888 23.0582 4.60987L21.9982 5.66987L20.9382 4.60987C19.9065 3.57818 18.5072 2.99858 17.0482 2.99858C15.5891 2.99858 14.1899 3.57818 13.1582 4.60987C12.1265 5.64156 11.5469 7.04084 11.5469 8.49987C11.5469 9.95891 12.1265 11.3582 13.1582 12.3899L14.2182 13.4499L21.9982 21.2299L29.7782 13.4499L30.8382 12.3899C31.3492 11.8791 31.7545 11.2727 32.0311 10.6052C32.3076 9.93777 32.45 9.22236 32.45 8.49987C32.45 7.77738 32.3076 7.06198 32.0311 6.39452C31.7545 5.72706 31.3492 5.12063 30.8382 4.60987V4.60987Z" stroke="#BCBCBC" stroke-width="2" stroke-linecap="round" stroke-linejoin="round"/>
<path d="M1.35503 36.2V33.878H5.69303V47H3.10103V36.2H1.35503ZM9.58652 47.126C9.13052 47.126 8.75252 46.988 8.45252 46.712C8.16452 46.424 8.02052 46.07 8.02052 45.65C8.02052 45.23 8.16452 44.882 8.45252 44.606C8.75252 44.318 9.13052 44.174 9.58652 44.174C10.0305 44.174 10.3965 44.318 10.6845 44.606C10.9725 44.882 11.1165 45.23 11.1165 45.65C11.1165 46.07 10.9725 46.424 10.6845 46.712C10.3965 46.988 10.0305 47.126 9.58652 47.126ZM21.6783 36.056H15.8463V39.134C16.0983 38.822 16.4583 38.57 16.9263 38.378C17.3943 38.174 17.8923 38.072 18.4203 38.072C19.3803 38.072 20.1663 38.282 20.7783 38.702C21.3903 39.122 21.8343 39.662 22.1103 40.322C22.3863 40.97 22.5243 41.666 22.5243 42.41C22.5243 43.79 22.1283 44.9 21.3363 45.74C20.5563 46.58 19.4403 47 17.9883 47C16.6203 47 15.5283 46.658 14.7123 45.974C13.8963 45.29 13.4343 44.396 13.3263 43.292H15.7743C15.8823 43.772 16.1223 44.156 16.4943 44.444C16.8783 44.732 17.3643 44.876 17.9523 44.876C18.6603 44.876 19.1943 44.654 19.5543 44.21C19.9143 43.766 20.0943 43.178 20.0943 42.446C20.0943 41.702 19.9083 41.138 19.5363 40.754C19.1763 40.358 18.6423 40.16 17.9343 40.16C17.4303 40.16 17.0103 40.286 16.6743 40.538C16.3383 40.79 16.0983 41.126 15.9543 41.546H13.5423V33.842H21.6783V36.056ZM30.6343 47L27.2503 42.752V47H24.7303V33.68H27.2503V41.258L30.5983 37.028H33.8743L29.4823 42.032L33.9103 47H30.6343Z" fill="#2B2B2B"/>
</svg>
