<svg width="29" height="53" viewBox="0 0 29 53" fill="none" xmlns="http://www.w3.org/2000/svg">
<path d="M12 2L15.09 8.26L22 9.27L17 14.14L18.18 21.02L12 17.77L5.82 21.02L7 14.14L2 9.27L8.91 8.26L12 2Z" fill="#FBCB15"/>
<path d="M0.846 44.444V42.464L6.732 34.04H9.666V42.248H11.25V44.444H9.666V47H7.146V44.444H0.846ZM7.308 36.74L3.618 42.248H7.308V36.74ZM14.2584 47.126C13.8024 47.126 13.4244 46.988 13.1244 46.712C12.8364 46.424 12.6924 46.07 12.6924 45.65C12.6924 45.23 12.8364 44.882 13.1244 44.606C13.4244 44.318 13.8024 44.174 14.2584 44.174C14.7024 44.174 15.0684 44.318 15.3564 44.606C15.6444 44.882 15.7884 45.23 15.7884 45.65C15.7884 46.07 15.6444 46.424 15.3564 46.712C15.0684 46.988 14.7024 47.126 14.2584 47.126ZM26.3502 36.056H20.5182V39.134C20.7702 38.822 21.1302 38.57 21.5982 38.378C22.0662 38.174 22.5642 38.072 23.0922 38.072C24.0522 38.072 24.8382 38.282 25.4502 38.702C26.0622 39.122 26.5062 39.662 26.7822 40.322C27.0582 40.97 27.1962 41.666 27.1962 42.41C27.1962 43.79 26.8002 44.9 26.0082 45.74C25.2282 46.58 24.1122 47 22.6602 47C21.2922 47 20.2002 46.658 19.3842 45.974C18.5682 45.29 18.1062 44.396 17.9982 43.292H20.4462C20.5542 43.772 20.7942 44.156 21.1662 44.444C21.5502 44.732 22.0362 44.876 22.6242 44.876C23.3322 44.876 23.8662 44.654 24.2262 44.21C24.5862 43.766 24.7662 43.178 24.7662 42.446C24.7662 41.702 24.5802 41.138 24.2082 40.754C23.8482 40.358 23.3142 40.16 22.6062 40.16C22.1022 40.16 21.6822 40.286 21.3462 40.538C21.0102 40.79 20.7702 41.126 20.6262 41.546H18.2142V33.842H26.3502V36.056Z" fill="#2B2B2B"/>
</svg>
