<svg width="234" height="224" viewBox="0 0 234 224" fill="none" xmlns="http://www.w3.org/2000/svg">
<g filter="url(#filter0_d_2_827)">
<rect x="30" y="40" width="154" height="144" rx="10" fill="white" shape-rendering="crispEdges"/>
<path d="M50.756 70.012V65.56H58.512V86H53.528V70.012H50.756ZM61.7873 75.5C61.7873 72.2893 62.4033 69.76 63.6353 67.912C64.886 66.064 66.8927 65.14 69.6553 65.14C72.418 65.14 74.4153 66.064 75.6473 67.912C76.898 69.76 77.5233 72.2893 77.5233 75.5C77.5233 78.748 76.898 81.296 75.6473 83.144C74.4153 84.992 72.418 85.916 69.6553 85.916C66.8927 85.916 64.886 84.992 63.6353 83.144C62.4033 81.296 61.7873 78.748 61.7873 75.5ZM72.8193 75.5C72.8193 73.6147 72.614 72.168 72.2033 71.16C71.7927 70.1333 70.9433 69.62 69.6553 69.62C68.3673 69.62 67.518 70.1333 67.1073 71.16C66.6967 72.168 66.4913 73.6147 66.4913 75.5C66.4913 76.7693 66.566 77.824 66.7153 78.664C66.8647 79.4853 67.1633 80.1573 67.6113 80.68C68.078 81.184 68.7593 81.436 69.6553 81.436C70.5513 81.436 71.2233 81.184 71.6713 80.68C72.138 80.1573 72.446 79.4853 72.5953 78.664C72.7447 77.824 72.8193 76.7693 72.8193 75.5ZM79.661 70.712C79.661 69.2 80.0903 68.0333 80.949 67.212C81.8263 66.3907 82.9556 65.98 84.337 65.98C85.7183 65.98 86.8383 66.3907 87.697 67.212C88.5556 68.0333 88.985 69.2 88.985 70.712C88.985 72.224 88.5556 73.3907 87.697 74.212C86.8383 75.0333 85.7183 75.444 84.337 75.444C82.9556 75.444 81.8263 75.0333 80.949 74.212C80.0903 73.3907 79.661 72.224 79.661 70.712ZM98.673 66.288L87.893 86H83.273L94.053 66.288H98.673ZM84.309 68.78C83.413 68.78 82.965 69.424 82.965 70.712C82.965 71.9813 83.413 72.616 84.309 72.616C84.7383 72.616 85.0743 72.4573 85.317 72.14C85.5596 71.8227 85.681 71.3467 85.681 70.712C85.681 69.424 85.2236 68.78 84.309 68.78ZM92.989 81.576C92.989 80.064 93.4183 78.8973 94.277 78.076C95.1356 77.2547 96.2556 76.844 97.637 76.844C99.0183 76.844 100.138 77.2547 100.997 78.076C101.856 78.8973 102.285 80.064 102.285 81.576C102.285 83.088 101.856 84.2547 100.997 85.076C100.138 85.8973 99.0183 86.308 97.637 86.308C96.2556 86.308 95.1356 85.8973 94.277 85.076C93.4183 84.2547 92.989 83.088 92.989 81.576ZM97.609 79.644C97.1796 79.644 96.8436 79.8027 96.601 80.12C96.377 80.4373 96.265 80.9227 96.265 81.576C96.265 82.8453 96.713 83.48 97.609 83.48C98.0383 83.48 98.3743 83.3213 98.617 83.004C98.8596 82.6867 98.981 82.2107 98.981 81.576C98.981 80.9413 98.8596 80.4653 98.617 80.148C98.3743 79.812 98.0383 79.644 97.609 79.644Z" fill="#F95555"/>
<path d="M56.04 109.1C57.52 109.1 58.8133 109.387 59.92 109.96C61.04 110.52 61.9 111.333 62.5 112.4C63.1133 113.453 63.42 114.687 63.42 116.1C63.42 117.513 63.1133 118.74 62.5 119.78C61.9 120.82 61.04 121.62 59.92 122.18C58.8133 122.727 57.52 123 56.04 123H51.5V109.1H56.04ZM56.04 121.14C57.6667 121.14 58.9133 120.7 59.78 119.82C60.6467 118.94 61.08 117.7 61.08 116.1C61.08 114.487 60.6467 113.227 59.78 112.32C58.9133 111.413 57.6667 110.96 56.04 110.96H53.78V121.14H56.04ZM66.8397 110.52C66.4264 110.52 66.0797 110.38 65.7997 110.1C65.5197 109.82 65.3797 109.473 65.3797 109.06C65.3797 108.647 65.5197 108.3 65.7997 108.02C66.0797 107.74 66.4264 107.6 66.8397 107.6C67.2397 107.6 67.5797 107.74 67.8597 108.02C68.1397 108.3 68.2797 108.647 68.2797 109.06C68.2797 109.473 68.1397 109.82 67.8597 110.1C67.5797 110.38 67.2397 110.52 66.8397 110.52ZM67.9597 111.98V123H65.6797V111.98H67.9597ZM74.9531 123.18C74.0865 123.18 73.3065 123.027 72.6131 122.72C71.9331 122.4 71.3931 121.973 70.9931 121.44C70.5931 120.893 70.3798 120.287 70.3531 119.62H72.7131C72.7531 120.087 72.9731 120.48 73.3731 120.8C73.7865 121.107 74.2998 121.26 74.9131 121.26C75.5531 121.26 76.0465 121.14 76.3931 120.9C76.7531 120.647 76.9331 120.327 76.9331 119.94C76.9331 119.527 76.7331 119.22 76.3331 119.02C75.9465 118.82 75.3265 118.6 74.4731 118.36C73.6465 118.133 72.9731 117.913 72.4531 117.7C71.9331 117.487 71.4798 117.16 71.0931 116.72C70.7198 116.28 70.5331 115.7 70.5331 114.98C70.5331 114.393 70.7065 113.86 71.0531 113.38C71.3998 112.887 71.8931 112.5 72.5331 112.22C73.1865 111.94 73.9331 111.8 74.7731 111.8C76.0265 111.8 77.0331 112.12 77.7931 112.76C78.5665 113.387 78.9798 114.247 79.0331 115.34H76.7531C76.7131 114.847 76.5131 114.453 76.1531 114.16C75.7931 113.867 75.3065 113.72 74.6931 113.72C74.0931 113.72 73.6331 113.833 73.3131 114.06C72.9931 114.287 72.8331 114.587 72.8331 114.96C72.8331 115.253 72.9398 115.5 73.1531 115.7C73.3665 115.9 73.6265 116.06 73.9331 116.18C74.2398 116.287 74.6931 116.427 75.2931 116.6C76.0931 116.813 76.7465 117.033 77.2531 117.26C77.7731 117.473 78.2198 117.793 78.5931 118.22C78.9665 118.647 79.1598 119.213 79.1731 119.92C79.1731 120.547 78.9998 121.107 78.6531 121.6C78.3065 122.093 77.8131 122.48 77.1731 122.76C76.5465 123.04 75.8065 123.18 74.9531 123.18ZM80.8767 117.48C80.8767 116.347 81.1034 115.353 81.5567 114.5C82.0234 113.633 82.6634 112.967 83.4767 112.5C84.2901 112.033 85.2234 111.8 86.2767 111.8C87.6101 111.8 88.7101 112.12 89.5767 112.76C90.4567 113.387 91.0501 114.287 91.3567 115.46H88.8967C88.6967 114.913 88.3767 114.487 87.9367 114.18C87.4967 113.873 86.9434 113.72 86.2767 113.72C85.3434 113.72 84.5967 114.053 84.0367 114.72C83.4901 115.373 83.2167 116.293 83.2167 117.48C83.2167 118.667 83.4901 119.593 84.0367 120.26C84.5967 120.927 85.3434 121.26 86.2767 121.26C87.5967 121.26 88.4701 120.68 88.8967 119.52H91.3567C91.0367 120.64 90.4367 121.533 89.5567 122.2C88.6767 122.853 87.5834 123.18 86.2767 123.18C85.2234 123.18 84.2901 122.947 83.4767 122.48C82.6634 122 82.0234 121.333 81.5567 120.48C81.1034 119.613 80.8767 118.613 80.8767 117.48ZM98.4089 123.18C97.3689 123.18 96.4289 122.947 95.5889 122.48C94.7489 122 94.0889 121.333 93.6089 120.48C93.1289 119.613 92.8889 118.613 92.8889 117.48C92.8889 116.36 93.1356 115.367 93.6289 114.5C94.1222 113.633 94.7956 112.967 95.6489 112.5C96.5022 112.033 97.4556 111.8 98.5089 111.8C99.5622 111.8 100.516 112.033 101.369 112.5C102.222 112.967 102.896 113.633 103.389 114.5C103.882 115.367 104.129 116.36 104.129 117.48C104.129 118.6 103.876 119.593 103.369 120.46C102.862 121.327 102.169 122 101.289 122.48C100.422 122.947 99.4622 123.18 98.4089 123.18ZM98.4089 121.2C98.9956 121.2 99.5422 121.06 100.049 120.78C100.569 120.5 100.989 120.08 101.309 119.52C101.629 118.96 101.789 118.28 101.789 117.48C101.789 116.68 101.636 116.007 101.329 115.46C101.022 114.9 100.616 114.48 100.109 114.2C99.6022 113.92 99.0556 113.78 98.4689 113.78C97.8822 113.78 97.3356 113.92 96.8289 114.2C96.3356 114.48 95.9422 114.9 95.6489 115.46C95.3556 116.007 95.2089 116.68 95.2089 117.48C95.2089 118.667 95.5089 119.587 96.1089 120.24C96.7222 120.88 97.4889 121.2 98.4089 121.2ZM116.363 111.98V123H114.083V121.7C113.723 122.153 113.249 122.513 112.663 122.78C112.089 123.033 111.476 123.16 110.823 123.16C109.956 123.16 109.176 122.98 108.483 122.62C107.803 122.26 107.263 121.727 106.863 121.02C106.476 120.313 106.283 119.46 106.283 118.46V111.98H108.543V118.12C108.543 119.107 108.789 119.867 109.283 120.4C109.776 120.92 110.449 121.18 111.303 121.18C112.156 121.18 112.829 120.92 113.323 120.4C113.829 119.867 114.083 119.107 114.083 118.12V111.98H116.363ZM124.931 111.8C125.798 111.8 126.571 111.98 127.251 112.34C127.944 112.7 128.484 113.233 128.871 113.94C129.258 114.647 129.451 115.5 129.451 116.5V123H127.191V116.84C127.191 115.853 126.944 115.1 126.451 114.58C125.958 114.047 125.284 113.78 124.431 113.78C123.578 113.78 122.898 114.047 122.391 114.58C121.898 115.1 121.651 115.853 121.651 116.84V123H119.371V111.98H121.651V113.24C122.024 112.787 122.498 112.433 123.071 112.18C123.658 111.927 124.278 111.8 124.931 111.8ZM135.019 113.84V119.94C135.019 120.353 135.113 120.653 135.299 120.84C135.499 121.013 135.833 121.1 136.299 121.1H137.699V123H135.899C134.873 123 134.086 122.76 133.539 122.28C132.993 121.8 132.719 121.02 132.719 119.94V113.84H131.419V111.98H132.719V109.24H135.019V111.98H137.699V113.84H135.019ZM56.12 145.84H54.08V155H51.78V145.84H50.48V143.98H51.78V143.2C51.78 141.933 52.1133 141.013 52.78 140.44C53.46 139.853 54.52 139.56 55.96 139.56V141.46C55.2667 141.46 54.78 141.593 54.5 141.86C54.22 142.113 54.08 142.56 54.08 143.2V143.98H56.12V145.84ZM62.9206 155.18C61.8806 155.18 60.9406 154.947 60.1006 154.48C59.2606 154 58.6006 153.333 58.1206 152.48C57.6406 151.613 57.4006 150.613 57.4006 149.48C57.4006 148.36 57.6473 147.367 58.1406 146.5C58.634 145.633 59.3073 144.967 60.1606 144.5C61.014 144.033 61.9673 143.8 63.0206 143.8C64.074 143.8 65.0273 144.033 65.8806 144.5C66.734 144.967 67.4073 145.633 67.9006 146.5C68.394 147.367 68.6406 148.36 68.6406 149.48C68.6406 150.6 68.3873 151.593 67.8806 152.46C67.374 153.327 66.6806 154 65.8006 154.48C64.934 154.947 63.974 155.18 62.9206 155.18ZM62.9206 153.2C63.5073 153.2 64.054 153.06 64.5606 152.78C65.0806 152.5 65.5006 152.08 65.8206 151.52C66.1406 150.96 66.3006 150.28 66.3006 149.48C66.3006 148.68 66.1473 148.007 65.8406 147.46C65.534 146.9 65.1273 146.48 64.6206 146.2C64.114 145.92 63.5673 145.78 62.9806 145.78C62.394 145.78 61.8473 145.92 61.3406 146.2C60.8473 146.48 60.454 146.9 60.1606 147.46C59.8673 148.007 59.7206 148.68 59.7206 149.48C59.7206 150.667 60.0206 151.587 60.6206 152.24C61.234 152.88 62.0006 153.2 62.9206 153.2ZM73.1745 145.58C73.5079 145.02 73.9479 144.587 74.4945 144.28C75.0545 143.96 75.7145 143.8 76.4745 143.8V146.16H75.8945C75.0012 146.16 74.3212 146.387 73.8545 146.84C73.4012 147.293 73.1745 148.08 73.1745 149.2V155H70.8945V143.98H73.1745V145.58ZM84.7256 151.9C86.0056 150.793 87.0123 149.887 87.7456 149.18C88.4923 148.46 89.1123 147.713 89.6056 146.94C90.099 146.167 90.3456 145.393 90.3456 144.62C90.3456 143.82 90.1523 143.193 89.7656 142.74C89.3923 142.287 88.799 142.06 87.9856 142.06C87.199 142.06 86.5856 142.313 86.1456 142.82C85.719 143.313 85.4923 143.98 85.4656 144.82H83.2656C83.3056 143.3 83.759 142.14 84.6256 141.34C85.5056 140.527 86.619 140.12 87.9656 140.12C89.419 140.12 90.5523 140.52 91.3656 141.32C92.1923 142.12 92.6056 143.187 92.6056 144.52C92.6056 145.48 92.359 146.407 91.8656 147.3C91.3856 148.18 90.8056 148.973 90.1256 149.68C89.459 150.373 88.6056 151.18 87.5656 152.1L86.6656 152.9H93.0056V154.8H83.2856V153.14L84.7256 151.9ZM105.284 155.18C104.244 155.18 103.304 154.947 102.464 154.48C101.624 154 100.964 153.333 100.484 152.48C100.004 151.613 99.7639 150.613 99.7639 149.48C99.7639 148.36 100.011 147.367 100.504 146.5C100.997 145.633 101.671 144.967 102.524 144.5C103.377 144.033 104.331 143.8 105.384 143.8C106.437 143.8 107.391 144.033 108.244 144.5C109.097 144.967 109.771 145.633 110.264 146.5C110.757 147.367 111.004 148.36 111.004 149.48C111.004 150.6 110.751 151.593 110.244 152.46C109.737 153.327 109.044 154 108.164 154.48C107.297 154.947 106.337 155.18 105.284 155.18ZM105.284 153.2C105.871 153.2 106.417 153.06 106.924 152.78C107.444 152.5 107.864 152.08 108.184 151.52C108.504 150.96 108.664 150.28 108.664 149.48C108.664 148.68 108.511 148.007 108.204 147.46C107.897 146.9 107.491 146.48 106.984 146.2C106.477 145.92 105.931 145.78 105.344 145.78C104.757 145.78 104.211 145.92 103.704 146.2C103.211 146.48 102.817 146.9 102.524 147.46C102.231 148.007 102.084 148.68 102.084 149.48C102.084 150.667 102.384 151.587 102.984 152.24C103.597 152.88 104.364 153.2 105.284 153.2ZM115.538 145.58C115.871 145.02 116.311 144.587 116.858 144.28C117.418 143.96 118.078 143.8 118.838 143.8V146.16H118.258C117.364 146.16 116.684 146.387 116.218 146.84C115.764 147.293 115.538 148.08 115.538 149.2V155H113.258V143.98H115.538V145.58ZM120.174 149.44C120.174 148.333 120.4 147.353 120.854 146.5C121.32 145.647 121.947 144.987 122.734 144.52C123.534 144.04 124.42 143.8 125.394 143.8C126.114 143.8 126.82 143.96 127.514 144.28C128.22 144.587 128.78 145 129.194 145.52V140.2H131.494V155H129.194V153.34C128.82 153.873 128.3 154.313 127.634 154.66C126.98 155.007 126.227 155.18 125.374 155.18C124.414 155.18 123.534 154.94 122.734 154.46C121.947 153.967 121.32 153.287 120.854 152.42C120.4 151.54 120.174 150.547 120.174 149.44ZM129.194 149.48C129.194 148.72 129.034 148.06 128.714 147.5C128.407 146.94 128 146.513 127.494 146.22C126.987 145.927 126.44 145.78 125.854 145.78C125.267 145.78 124.72 145.927 124.214 146.22C123.707 146.5 123.294 146.92 122.974 147.48C122.667 148.027 122.514 148.68 122.514 149.44C122.514 150.2 122.667 150.867 122.974 151.44C123.294 152.013 123.707 152.453 124.214 152.76C124.734 153.053 125.28 153.2 125.854 153.2C126.44 153.2 126.987 153.053 127.494 152.76C128 152.467 128.407 152.04 128.714 151.48C129.034 150.907 129.194 150.24 129.194 149.48ZM144.588 149.22C144.588 149.633 144.562 150.007 144.508 150.34H136.088C136.155 151.22 136.482 151.927 137.068 152.46C137.655 152.993 138.375 153.26 139.228 153.26C140.455 153.26 141.322 152.747 141.828 151.72H144.288C143.955 152.733 143.348 153.567 142.468 154.22C141.602 154.86 140.522 155.18 139.228 155.18C138.175 155.18 137.228 154.947 136.388 154.48C135.562 154 134.908 153.333 134.428 152.48C133.962 151.613 133.728 150.613 133.728 149.48C133.728 148.347 133.955 147.353 134.408 146.5C134.875 145.633 135.522 144.967 136.348 144.5C137.188 144.033 138.148 143.8 139.228 143.8C140.268 143.8 141.195 144.027 142.008 144.48C142.822 144.933 143.455 145.573 143.908 146.4C144.362 147.213 144.588 148.153 144.588 149.22ZM142.208 148.5C142.195 147.66 141.895 146.987 141.308 146.48C140.722 145.973 139.995 145.72 139.128 145.72C138.342 145.72 137.668 145.973 137.108 146.48C136.548 146.973 136.215 147.647 136.108 148.5H142.208ZM149.112 145.58C149.445 145.02 149.885 144.587 150.432 144.28C150.992 143.96 151.652 143.8 152.412 143.8V146.16H151.832C150.939 146.16 150.259 146.387 149.792 146.84C149.339 147.293 149.112 148.08 149.112 149.2V155H146.832V143.98H149.112V145.58ZM158.508 155.18C157.641 155.18 156.861 155.027 156.168 154.72C155.488 154.4 154.948 153.973 154.548 153.44C154.148 152.893 153.934 152.287 153.908 151.62H156.268C156.308 152.087 156.528 152.48 156.928 152.8C157.341 153.107 157.854 153.26 158.468 153.26C159.108 153.26 159.601 153.14 159.948 152.9C160.308 152.647 160.488 152.327 160.488 151.94C160.488 151.527 160.288 151.22 159.888 151.02C159.501 150.82 158.881 150.6 158.028 150.36C157.201 150.133 156.528 149.913 156.008 149.7C155.488 149.487 155.034 149.16 154.648 148.72C154.274 148.28 154.088 147.7 154.088 146.98C154.088 146.393 154.261 145.86 154.608 145.38C154.954 144.887 155.448 144.5 156.088 144.22C156.741 143.94 157.488 143.8 158.328 143.8C159.581 143.8 160.588 144.12 161.348 144.76C162.121 145.387 162.534 146.247 162.588 147.34H160.308C160.268 146.847 160.068 146.453 159.708 146.16C159.348 145.867 158.861 145.72 158.248 145.72C157.648 145.72 157.188 145.833 156.868 146.06C156.548 146.287 156.388 146.587 156.388 146.96C156.388 147.253 156.494 147.5 156.708 147.7C156.921 147.9 157.181 148.06 157.488 148.18C157.794 148.287 158.248 148.427 158.848 148.6C159.648 148.813 160.301 149.033 160.808 149.26C161.328 149.473 161.774 149.793 162.148 150.22C162.521 150.647 162.714 151.213 162.728 151.92C162.728 152.547 162.554 153.107 162.208 153.6C161.861 154.093 161.368 154.48 160.728 154.76C160.101 155.04 159.361 155.18 158.508 155.18Z" fill="black"/>
<path d="M171.402 24.4485C173.966 21.9682 178.034 21.9682 180.598 24.4485C182.065 25.8669 184.103 26.5293 186.123 26.2436C189.655 25.744 192.947 28.1357 193.563 31.6493C193.916 33.6586 195.176 35.3927 196.978 36.3488C200.129 38.0208 201.386 41.8906 199.82 45.0955C198.924 46.9282 198.924 49.0718 199.82 50.9045C201.386 54.1094 200.129 57.9792 196.978 59.6512C195.176 60.6073 193.916 62.3414 193.563 64.3507C192.947 67.8643 189.655 70.256 186.123 69.7564C184.103 69.4707 182.065 70.1331 180.598 71.5515C178.034 74.0318 173.966 74.0318 171.402 71.5515C169.935 70.1331 167.897 69.4707 165.877 69.7564C162.345 70.256 159.053 67.8643 158.437 64.3507C158.084 62.3414 156.824 60.6073 155.022 59.6512C151.871 57.9792 150.614 54.1094 152.18 50.9045C153.076 49.0718 153.076 46.9282 152.18 45.0955C150.614 41.8906 151.871 38.0208 155.022 36.3488C156.824 35.3927 158.084 33.6586 158.437 31.6493C159.053 28.1357 162.345 25.744 165.877 26.2436C167.897 26.5293 169.935 25.8669 171.402 24.4485Z" fill="#F95555"/>
<path d="M183 41L169 55" stroke="white" stroke-width="2" stroke-linecap="round" stroke-linejoin="round"/>
<path d="M170.5 45C171.881 45 173 43.8807 173 42.5C173 41.1193 171.881 40 170.5 40C169.119 40 168 41.1193 168 42.5C168 43.8807 169.119 45 170.5 45Z" stroke="white" stroke-width="2" stroke-linecap="round" stroke-linejoin="round"/>
<path d="M181.5 56C182.881 56 184 54.8807 184 53.5C184 52.1193 182.881 51 181.5 51C180.119 51 179 52.1193 179 53.5C179 54.8807 180.119 56 181.5 56Z" stroke="white" stroke-width="2" stroke-linecap="round" stroke-linejoin="round"/>
</g>
<defs>
<filter id="filter0_d_2_827" x="0" y="0" width="234" height="224" filterUnits="userSpaceOnUse" color-interpolation-filters="sRGB">
<feFlood flood-opacity="0" result="BackgroundImageFix"/>
<feColorMatrix in="SourceAlpha" type="matrix" values="0 0 0 0 0 0 0 0 0 0 0 0 0 0 0 0 0 0 127 0" result="hardAlpha"/>
<feOffset dy="10"/>
<feGaussianBlur stdDeviation="15"/>
<feComposite in2="hardAlpha" operator="out"/>
<feColorMatrix type="matrix" values="0 0 0 0 0.168627 0 0 0 0 0.168627 0 0 0 0 0.168627 0 0 0 0.2 0"/>
<feBlend mode="normal" in2="BackgroundImageFix" result="effect1_dropShadow_2_827"/>
<feBlend mode="normal" in="SourceGraphic" in2="effect1_dropShadow_2_827" result="shape"/>
</filter>
</defs>
</svg>
