<svg width="180" height="139" viewBox="0 0 180 139" fill="none" xmlns="http://www.w3.org/2000/svg">
<g id="Rectangle 40166">
<path d="M1.74845e-06 129C7.82809e-07 134.523 4.47715 139 10 139L170 139C175.523 139 180 134.523 180 129L180 10.38C180 4.3467 174.698 -0.312653 168.714 0.462935L8.71449 21.2037C3.73031 21.8498 1.9741e-05 26.0948 1.88622e-05 31.1207L1.74845e-06 129Z" fill="white"/>
<path d="M0.500002 129C0.500001 134.247 4.7533 138.5 10 138.5L170 138.5C175.247 138.5 179.5 134.247 179.5 129L179.5 10.38C179.5 4.64836 174.463 0.221985 168.779 0.958785L8.77876 21.6995C4.04379 22.3133 0.50002 26.3461 0.500019 31.1207L0.500002 129Z" stroke="#2B2B2B" stroke-opacity="0.05"/>
</g>
</svg>
