<svg width="368" height="411" viewBox="0 0 368 411" fill="none" xmlns="http://www.w3.org/2000/svg">
<mask id="path-1-inside-1_2_942" fill="white">
<path fill-rule="evenodd" clip-rule="evenodd" d="M184 170.285C239.229 170.285 284 125.514 284 70.2852C284 43.2698 273.287 18.7565 255.878 0.761528C314.994 -6.54215 368 39.6018 368 100.029L368 380.285C368 396.854 354.569 410.285 338 410.285L30 410.285C13.4315 410.285 -2.65774e-06 396.853 0 380.285L4.00736e-05 130.463C4.78298e-05 82.1107 34.5959 40.6843 82.1742 32.065L92.3486 30.2218C86.9792 42.4878 84 56.0386 84 70.2852C84 125.514 128.772 170.285 184 170.285Z"/>
</mask>
<path fill-rule="evenodd" clip-rule="evenodd" d="M184 170.285C239.229 170.285 284 125.514 284 70.2852C284 43.2698 273.287 18.7565 255.878 0.761528C314.994 -6.54215 368 39.6018 368 100.029L368 380.285C368 396.854 354.569 410.285 338 410.285L30 410.285C13.4315 410.285 -2.65774e-06 396.853 0 380.285L4.00736e-05 130.463C4.78298e-05 82.1107 34.5959 40.6843 82.1742 32.065L92.3486 30.2218C86.9792 42.4878 84 56.0386 84 70.2852C84 125.514 128.772 170.285 184 170.285Z" fill="white"/>
<path d="M255.878 0.761528L255.756 -0.230926L253.765 0.0150525L255.16 1.45684L255.878 0.761528ZM368 100.029H369H368ZM368 380.285H367H368ZM338 410.285V411.285V410.285ZM30 410.285V409.285V410.285ZM0 380.285H-1H0ZM4.00736e-05 130.463H-0.99996H4.00736e-05ZM82.1742 32.065L81.9959 31.081L82.1742 32.065ZM92.3486 30.2218L93.2647 30.6228L94.0174 28.9032L92.1704 29.2379L92.3486 30.2218ZM283 70.2852C283 124.961 238.676 169.285 184 169.285V171.285C239.781 171.285 285 126.066 285 70.2852H283ZM255.16 1.45684C272.395 19.2728 283 43.5396 283 70.2852H285C285 43 274.179 18.2401 256.597 0.0662175L255.16 1.45684ZM369 100.029C369 38.997 315.464 -7.6078 255.756 -0.230926L256.001 1.75398C314.524 -5.47649 367 40.2066 367 100.029H369ZM369 380.285L369 100.029H367L367 380.285H369ZM338 411.285C355.121 411.285 369 397.406 369 380.285H367C367 396.301 354.016 409.285 338 409.285V411.285ZM30 411.285L338 411.285V409.285L30 409.285V411.285ZM-1 380.285C-1 397.406 12.8792 411.285 30 411.285V409.285C13.9837 409.285 0.999997 396.301 1 380.285H-1ZM-0.99996 130.463L-1 380.285H1L1.00004 130.463H-0.99996ZM81.9959 31.081C33.9419 39.7865 -0.999952 81.6272 -0.99996 130.463H1.00004C1.00005 82.5942 35.25 41.5821 82.3524 33.049L81.9959 31.081ZM92.1704 29.2379L81.9959 31.081L82.3524 33.049L92.5269 31.2058L92.1704 29.2379ZM85 70.2852C85 56.1792 87.9496 42.7647 93.2647 30.6228L91.4325 29.8208C86.0089 42.2108 83 55.898 83 70.2852H85ZM184 169.285C129.324 169.285 85 124.961 85 70.2852H83C83 126.066 128.219 171.285 184 171.285V169.285Z" fill="#2B2B2B" fill-opacity="0.05" mask="url(#path-1-inside-1_2_942)"/>
</svg>
