<svg width="42" height="16" viewBox="0 0 42 16" fill="none" xmlns="http://www.w3.org/2000/svg">
<path d="M1.00012 7C0.447837 7 0.00012207 7.44772 0.00012207 8C0.00012207 8.55228 0.447837 9 1.00012 9V7ZM41.7072 8.70711C42.0978 8.31658 42.0978 7.68342 41.7072 7.29289L35.3433 0.928932C34.9527 0.538408 34.3196 0.538408 33.9291 0.928932C33.5385 1.31946 33.5385 1.95262 33.9291 2.34315L39.5859 8L33.9291 13.6569C33.5385 14.0474 33.5385 14.6805 33.9291 15.0711C34.3196 15.4616 34.9527 15.4616 35.3433 15.0711L41.7072 8.70711ZM1.00012 9H41.0001V7H1.00012V9Z" fill="white"/>
</svg>
